<svg width="18" height="19" viewBox="0 0 18 19" fill="none" xmlns="http://www.w3.org/2000/svg">
<path d="M11.7188 3.125H16.4062C16.6135 3.125 16.8122 3.20731 16.9587 3.35382C17.1052 3.50034 17.1875 3.69905 17.1875 3.90625C17.1875 4.11345 17.1052 4.31216 16.9587 4.45868C16.8122 4.60519 16.6135 4.6875 16.4062 4.6875H15.5422L14.3672 15.275C14.261 16.2305 13.8063 17.1134 13.0899 17.7545C12.3735 18.3957 11.4458 18.7501 10.4844 18.75H6.70312C5.74172 18.7501 4.81404 18.3957 4.09764 17.7545C3.38124 17.1134 2.92645 16.2305 2.82031 15.275L1.64375 4.6875H0.78125C0.57405 4.6875 0.375336 4.60519 0.228823 4.45868C0.0823102 4.31216 0 4.11345 0 3.90625C0 3.69905 0.0823102 3.50034 0.228823 3.35382C0.375336 3.20731 0.57405 3.125 0.78125 3.125H5.46875C5.46875 2.2962 5.79799 1.50134 6.38404 0.915291C6.97009 0.32924 7.76495 0 8.59375 0C9.42255 0 10.2174 0.32924 10.8035 0.915291C11.3895 1.50134 11.7188 2.2962 11.7188 3.125ZM8.59375 1.5625C8.17935 1.5625 7.78192 1.72712 7.4889 2.02015C7.19587 2.31317 7.03125 2.7106 7.03125 3.125H10.1562C10.1562 2.7106 9.99163 2.31317 9.6986 2.02015C9.40558 1.72712 9.00815 1.5625 8.59375 1.5625ZM6.25 7.8125V14.0625C6.25 14.2697 6.33231 14.4684 6.47882 14.6149C6.62534 14.7614 6.82405 14.8438 7.03125 14.8438C7.23845 14.8438 7.43716 14.7614 7.58368 14.6149C7.73019 14.4684 7.8125 14.2697 7.8125 14.0625V7.8125C7.8125 7.6053 7.73019 7.40659 7.58368 7.26007C7.43716 7.11356 7.23845 7.03125 7.03125 7.03125C6.82405 7.03125 6.62534 7.11356 6.47882 7.26007C6.33231 7.40659 6.25 7.6053 6.25 7.8125ZM10.1562 7.03125C9.94905 7.03125 9.75033 7.11356 9.60382 7.26007C9.45731 7.40659 9.375 7.6053 9.375 7.8125V14.0625C9.375 14.2697 9.45731 14.4684 9.60382 14.6149C9.75033 14.7614 9.94905 14.8438 10.1562 14.8438C10.3635 14.8438 10.5622 14.7614 10.7087 14.6149C10.8552 14.4684 10.9375 14.2697 10.9375 14.0625V7.8125C10.9375 7.6053 10.8552 7.40659 10.7087 7.26007C10.5622 7.11356 10.3635 7.03125 10.1562 7.03125Z" fill="white"/>
</svg>
