<svg width="20" height="20" viewBox="0 0 20 20" fill="none" xmlns="http://www.w3.org/2000/svg">
<path d="M10 10.8333C11.3807 10.8333 12.5 9.71404 12.5 8.33333C12.5 6.95262 11.3807 5.83333 10 5.83333C8.61929 5.83333 7.5 6.95262 7.5 8.33333C7.5 9.71404 8.61929 10.8333 10 10.8333Z" stroke="#3F4E65" stroke-width="1.3" stroke-linecap="round" stroke-linejoin="round"/>
<path d="M10 1.66667C8.23193 1.66667 6.53624 2.36905 5.286 3.61929C4.03575 4.86953 3.33337 6.56522 3.33337 8.33333C3.33337 9.91 3.66837 10.9417 4.58337 12.0833L10 18.3333L15.4167 12.0833C16.3317 10.9417 16.6667 9.91 16.6667 8.33333C16.6667 6.56522 15.9643 4.86953 14.7141 3.61929C13.4638 2.36905 11.7681 1.66667 10 1.66667V1.66667Z" stroke="#3F4E65" stroke-width="1.3" stroke-linecap="round" stroke-linejoin="round"/>
</svg>
