<svg width="20" height="20" viewBox="0 0 20 20" fill="none" xmlns="http://www.w3.org/2000/svg">
<path d="M4.37496 3.33333H15.625C16.3167 3.33329 16.9823 3.59796 17.4852 4.07306C17.988 4.54816 18.29 5.19766 18.3291 5.88833L18.3333 6.04167V13.9583C18.3333 14.6501 18.0687 15.3157 17.5936 15.8185C17.1185 16.3214 16.469 16.6233 15.7783 16.6625L15.625 16.6667H4.37496C3.68318 16.6667 3.0176 16.402 2.51477 15.9269C2.01193 15.4518 1.70996 14.8023 1.67079 14.1117L1.66663 13.9583V6.04167C1.66658 5.34989 1.93125 4.68431 2.40635 4.18147C2.88145 3.67864 3.53095 3.37667 4.22163 3.3375L4.37496 3.33333H15.625H4.37496ZM17.0833 7.81083L10.2916 11.3858C10.2149 11.4263 10.1307 11.4505 10.0441 11.4566C9.95763 11.4628 9.87079 11.4509 9.78913 11.4217L9.70913 11.3867L2.91663 7.81167V13.9583C2.91664 14.3243 3.05427 14.6769 3.30219 14.9462C3.55012 15.2154 3.89021 15.3815 4.25496 15.4117L4.37496 15.4167H15.625C15.9911 15.4166 16.3438 15.2789 16.6131 15.0308C16.8823 14.7827 17.0484 14.4424 17.0783 14.0775L17.0833 13.9583V7.81083ZM15.625 4.58333H4.37496C4.00897 4.58335 3.65636 4.72098 3.38713 4.9689C3.11791 5.21682 2.95174 5.55692 2.92163 5.92167L2.91663 6.04167V6.39917L9.99996 10.1267L17.0833 6.39833V6.04167C17.0833 5.67554 16.9455 5.32283 16.6974 5.05358C16.4493 4.78433 16.109 4.61825 15.7441 4.58833L15.625 4.58333Z" fill="#3F4E65"/>
</svg>
