<svg width="39" height="39" viewBox="0 0 39 39" fill="none" xmlns="http://www.w3.org/2000/svg">
<g clip-path="url(#clip0_2163_48)">
<path d="M19.5 0C8.73036 0 0 8.73036 0 19.5C0 30.2696 8.73036 39 19.5 39C30.2696 39 39 30.2696 39 19.5C39 8.73036 30.2696 0 19.5 0Z" fill="#40B3E0"/>
<path d="M28.9885 11.2172L25.5055 28.7777C25.5055 28.7777 25.0184 29.9955 23.6789 29.411L15.6415 23.249L12.719 21.8364L7.79917 20.1802C7.79917 20.1802 7.04416 19.9123 6.97103 19.3278C6.89791 18.7432 7.82355 18.4267 7.82355 18.4267L27.3808 10.7546C27.3808 10.7546 28.9884 10.0484 28.9884 11.2175" fill="white"/>
<path d="M15.0238 28.5799C15.0238 28.5799 14.7892 28.558 14.4967 27.6324C14.2047 26.7069 12.7189 21.8358 12.7189 21.8358L24.5313 14.3344C24.5313 14.3344 25.2133 13.9204 25.189 14.3344C25.189 14.3344 25.3107 14.4075 24.9452 14.7485C24.5801 15.0896 15.666 23.1024 15.666 23.1024" fill="#D2E5F1"/>
<path d="M18.7233 25.6112L15.5443 28.5097C15.5443 28.5097 15.2957 28.6983 15.0239 28.5801L15.6327 23.1963" fill="#B5CFE4"/>
</g>
<defs>
<clipPath id="clip0_2163_48">
<rect width="39" height="39" fill="white"/>
</clipPath>
</defs>
</svg>
